<?xml version="1.0" standalone="no"?>
<!DOCTYPE svg PUBLIC "-//W3C//DTD SVG 20010904//EN"
 "http://www.w3.org/TR/2001/REC-SVG-20010904/DTD/svg10.dtd">
<svg version="1.0" xmlns="http://www.w3.org/2000/svg"
 width="400.000000pt" height="400.000000pt" viewBox="0 0 400.000000 400.000000"
 preserveAspectRatio="xMidYMid meet">

<g transform="translate(0.000000,400.000000) scale(0.100000,-0.100000)"
fill="#000000" stroke="none">
<path d="M1083 3363 l-43 -4 0 -120 0 -119 80 0 80 0 0 125 0 125 -37 -2 c-21
-1 -57 -3 -80 -5z"/>
<path d="M2498 3282 c-16 -3 -18 -17 -18 -123 l0 -119 120 0 120 0 0 126 0
125 -102 -3 c-57 -1 -111 -4 -120 -6z"/>
<path d="M1520 2770 l0 -40 -120 0 -120 0 0 -85 0 -85 -40 0 c-40 0 -40 0 -40
-39 0 -39 -1 -40 -37 -43 -31 -2 -38 -7 -39 -25 -1 -13 -2 -120 -3 -238 l-1
-215 -40 0 -40 0 0 -160 0 -160 40 0 40 0 0 -80 0 -80 40 0 c40 0 40 0 40 39
0 39 1 40 38 43 l37 3 3 77 3 77 37 3 37 3 3 118 c2 83 6 117 15 118 7 1 21 2
32 3 11 1 41 3 68 4 47 2 47 2 47 37 l0 35 119 0 120 0 3 -37 c3 -36 5 -38 38
-38 33 0 35 2 38 38 l3 37 58 0 c32 0 86 3 120 6 l61 7 0 -47 0 -46 -40 0 -40
0 0 -84 0 -84 -35 4 c-34 3 -35 2 -35 -31 l0 -34 69 0 68 0 7 52 c3 29 6 80 6
115 l0 62 40 0 40 0 0 -80 0 -80 40 0 40 0 0 -315 0 -315 -40 0 -40 0 0 -85 0
-85 40 0 40 0 0 -69 c0 -37 3 -89 6 -115 l7 -46 113 0 114 0 0 40 0 40 80 0
80 0 0 35 c0 21 5 36 13 37 6 0 17 2 22 3 6 2 18 3 28 4 15 1 17 12 17 81 l0
80 40 0 c39 0 40 1 40 34 0 33 -2 35 -37 38 l-38 3 -3 478 -2 477 -40 0 -39 0
-3 118 -3 117 -37 3 c-35 3 -37 5 -40 40 -3 36 -4 37 -45 40 -43 3 -43 3 -43
43 0 38 -1 39 -34 39 -33 0 -35 2 -38 38 -3 35 -5 37 -40 40 -37 3 -38 4 -38
41 l0 38 -79 7 -80 7 -3 37 -3 37 -317 3 -318 2 0 -40z"/>
<path d="M1520 1916 c0 -73 -2 -83 -17 -83 -48 0 -53 -3 -53 -32 l0 -29 69 -1
68 -1 7 46 c3 26 6 78 6 115 l0 69 -40 0 -40 0 0 -84z"/>
<path d="M3682 1795 c0 -16 2 -22 5 -12 2 9 2 23 0 30 -3 6 -5 -1 -5 -18z"/>
</g>
</svg>
